<svg width="600" height="400" viewBox="0 0 600 400" fill="none" xmlns="http://www.w3.org/2000/svg">
  <!-- Background -->
  <rect width="600" height="400" fill="#F0F9FF"/>
  
  <!-- Water waves -->
  <path d="M0 320 Q150 300 300 320 T600 320 V400 H0 Z" fill="#0EA5E9" opacity="0.3"/>
  <path d="M0 340 Q150 320 300 340 T600 340 V400 H0 Z" fill="#0EA5E9" opacity="0.2"/>
  
  <!-- Fish -->
  <ellipse cx="200" cy="200" rx="80" ry="30" fill="#F59E0B"/>
  <ellipse cx="190" cy="195" rx="60" ry="25" fill="#D97706"/>
  <path d="M120 200 L100 190 L100 210 Z" fill="#F59E0B"/>
  <circle cx="170" cy="190" r="8" fill="#1F2937"/>
  <circle cx="170" cy="190" r="3" fill="white"/>
  
  <!-- Chips -->
  <rect x="350" y="150" width="8" height="60" rx="4" fill="#FCD34D"/>
  <rect x="365" y="140" width="8" height="70" rx="4" fill="#FCD34D"/>
  <rect x="380" y="160" width="8" height="50" rx="4" fill="#FCD34D"/>
  <rect x="395" y="145" width="8" height="65" rx="4" fill="#FCD34D"/>
  <rect x="410" y="155" width="8" height="55" rx="4" fill="#FCD34D"/>
  
  <!-- Plate -->
  <ellipse cx="300" cy="250" rx="120" ry="20" fill="white"/>
  <ellipse cx="300" cy="245" rx="115" ry="18" fill="#F8FAFC"/>
  
  <!-- Text -->
  <text x="300" y="320" text-anchor="middle" fill="#1E40AF" font-family="Arial, sans-serif" font-size="24" font-weight="bold">Fresh Fish & Chips</text>
</svg>