<svg width="400" height="300" viewBox="0 0 400 300" fill="none" xmlns="http://www.w3.org/2000/svg">
  <!-- Background -->
  <rect width="400" height="300" fill="#EFF6FF"/>
  
  <!-- Kitchen counter -->
  <rect x="0" y="200" width="400" height="100" fill="#6B7280"/>
  <rect x="0" y="200" width="400" height="20" fill="#9CA3AF"/>
  
  <!-- Cutting board -->
  <rect x="100" y="160" width="200" height="80" rx="10" fill="#92400E"/>
  <rect x="110" y="170" width="180" height="60" rx="5" fill="#B45309"/>
  
  <!-- Fish on cutting board -->
  <ellipse cx="200" cy="200" rx="70" ry="25" fill="#F59E0B"/>
  <ellipse cx="190" cy="195" rx="50" ry="20" fill="#D97706"/>
  <path d="M130 200 L110 190 L110 210 Z" fill="#F59E0B"/>
  <circle cx="170" cy="190" r="6" fill="#1F2937"/>
  <circle cx="170" cy="190" r="2" fill="white"/>
  
  <!-- Knife -->
  <rect x="320" y="180" width="50" height="8" rx="2" fill="#9CA3AF"/>
  <rect x="320" y="182" width="40" height="4" rx="1" fill="#E5E7EB"/>
  <rect x="360" y="175" width="15" height="18" rx="2" fill="#374151"/>
  
  <!-- Fresh indicators -->
  <circle cx="80" cy="100" r="30" fill="#10B981" opacity="0.2"/>
  <text x="80" y="108" text-anchor="middle" fill="#10B981" font-family="Arial, sans-serif" font-size="16" font-weight="bold">FRESH</text>
  
  <circle cx="320" cy="80" r="25" fill="#10B981" opacity="0.2"/>
  <text x="320" y="87" text-anchor="middle" fill="#10B981" font-family="Arial, sans-serif" font-size="14" font-weight="bold">DAILY</text>
</svg>